{"title":"Videography - U2 - DVDQ [.vob] - Part 8","uid":6638883,"size":1270426000,"categoryP":"video","categoryS":"music_videos","magnet":"?xt=urn:btih:260346237b6910ce29867427136a1920c3d7dc32&amp;dn=Videography+-+U2+-+DVDQ+%5B.vob%5D+-+Part+8&amp;tr=udp%3A%2F%2Ftracker.openbittorrent.com%3A80&amp;tr=udp%3A%2F%2Fopen.demonii.com%3A1337&amp;tr=udp%3A%2F%2Ftracker.coppersurfer.tk%3A6969&amp;tr=udp%3A%2F%2Fexodus.desync.com%3A6969","seeders":0,"leechers":1,"uploader":"dehou","files":6,"time":1314674410,"description":"Part 8\n\nU2 - DiscothÃƒÂ¨que [Steve Osbourne Remix] [1997].vob\nU2 - The Best Of 1990-2000 DVD - Mofo [1997].vob\nU2 - The Best Of 1990-2000 DVD - Please [1997].vob\nU2 - The Best Of 1990-2000 DVD - Staring At The Sun [Miami Version] [1997].vob\nU2 - The Best Of 1990-2000 DVD - Gone [Live From Mexico City] [1998].vob\n\n\nSo far\n\nU2 - I Will Follow [Old Grey Whistle Test] [1981].vob\nU2 - The Unforgettable Fire Collection DVD - 11 O'Clock Tick Tock [Bootleg Version] [1983].vob\nU2 - The Unforgettable Fire Collection DVD - A Sort Of Homecoming [1984].vob\nU2 - U218 Videos - New Year's Day [1983].vob\nU2 - U218 Videos - Sunday Bloody Sunday [Live At Red Rocks] [1983].vob\nU2 - The Unforgettable Fire Collection DVD - Bad [1984].vob\nU2 - The Unforgettable Fire Collection DVD - Pride (In The Name Of Love) [1984].vob\nU2 - The Unforgettable Fire Collection DVD - The Unforgettable Fire [1985].vob\nU2 - The Unforgettable Fire Collection DVD - Pride (In The Name Of Love) [Sepia Version] [1984].vob\nU2 - U218 Videos - Pride (In The Name Of Love) [Slane Castle Version] [1984].vob\nU2 - U218 Videos - Where The Streets Have No Name [1987].vob\nU2 - Christmas (Baby Please Come Home) [1987].vob\nU2 - U218 Videos - I Still Haven't Found What I'm Looking For [1987].vob\nU2 - U218 Videos - With Or Without You [1987].vob\nU2 - U218 Videos - Desire [1988].vob\nU2 - U218 Videos - Mysterious Ways [1991].vob\nU2 - The Best Of 1990-2000 DVD - The Fly [1991].vob\nU2 - The Best Of 1990-2000 DVD - Even Better Than The Real Thing [1992].vob\nU2 - The Best Of 1990-2000 DVD - Even Better Than The Real Thing [Dance Mix] [1992].vob\nU2 - The Best Of 1990-2000 DVD - One [1992].vob\nU2 - The Best Of 1990-2000 DVD - Who's Gonna Ride Your Wild Horses [1992].vob\nU2 - U218 Videos - One [Restaurant Version] [1992].vob\nU2 - U218 Videos - One [Buffalo Version] [1992].vob\nU2 - The Best Of 1990-2000 DVD - Lemon [1993].vob\nU2 - The Best Of 1990-2000 DVD - Numb [1993].vob\nU2 - The Best Of 1990-2000 DVD - Numb [Emergency Broadcast Network] [1993].vob\nU2 - The Best Of 1990-2000 DVD - Stay (Faraway, So Close!) [1993].vob\nU2 - The Best Of 1990-2000 DVD - Hold Me, Thrill Me, Kiss Me, Kill Me [1995].vob\nU2 - The Best Of 1990-2000 DVD - Miss Sarajevo [1995].vob\nU2 - The Best Of 1990-2000 DVD - DiscothÃƒÂ¨que [1997].vob\nU2 - The Best Of 1990-2000 DVD - If God Will Send His Angels [1997].vob\nU2 - The Best Of 1990-2000 DVD - Last Night On Earth [1997].vob\n\n\nFormat info for the videos from &quot;The Best Of 1990-2000 DVD&quot;\n\nSecond audio stream with comments of the videos and subtitles available\n\nVideo\nID                               : 224 (0xE0)\nFormat                           : MPEG Video\nFormat version                   : Version 2\nFormat profile                   : Main@Main\nFormat settings, BVOP            : Yes\nFormat settings, Matrix          : Custom\nFormat settings, GOP             : M=3, N=15\nBit rate mode                    : Variable\nNominal bit rate                 : 8 000 Kbps\nWidth                            : 720 pixels\nHeight                           : 480 pixels\nDisplay aspect ratio             : 4:3\nFrame rate                       : 29.970 fps\nStandard                         : NTSC\nColor space                      : YUV\nChroma subsampling               : 4:2:0\nBit depth                        : 8 bits\nScan type                        : Interlaced\nScan order                       : Top Field First\nCompression mode                 : Lossy\n\nAudio #1\nID                               : 189 (0xBD)-129 (0x81)\nFormat                           : AC-3\nFormat/Info                      : Audio Coding 3\nMode extension                   : CM (complete main)\nMuxing mode                      : DVD-Video\nBit rate mode                    : Constant\nBit rate                         : 192 Kbps\nChannel(s)                       : 2 channels\nChannel positions                : Front: L R\nSampling rate                    : 48.0 KHz\nBit depth                        : 16 bits\nCompression mode                 : Lossy\n\nAudio #2\nID                               : 189 (0xBD)-160 (0xA0)\nFormat                           : PCM\nFormat settings, Endianness      : Big\nFormat settings, Sign            : Signed\nMuxing mode                      : DVD-Video\nBit rate mode                    : Constant\nBit rate                         : 1 536 Kbps\nChannel(s)                       : 2 channels\nChannel positions                : Front: L R\nSampling rate                    : 48.0 KHz\nBit depth                        : 16 bits\n\n\nFormat info for &quot;U2 - DiscothÃƒÂ¨que [Steve Osbourne Remix] [1997]&quot;\n\nVideo\nID                               : 224 (0xE0)\nFormat                           : MPEG Video\nFormat version                   : Version 2\nFormat profile                   : Main@Main\nFormat settings, BVOP            : Yes\nFormat settings, Matrix          : Custom\nFormat settings, GOP             : M=3, N=15\nDuration                         : 4mn 7s\nBit rate mode                    : Variable\nBit rate                         : 5 427 Kbps\nNominal bit rate                 : 6 227 Kbps\nWidth                            : 720 pixels\nHeight                           : 480 pixels\nDisplay aspect ratio             : 4:3\nFrame rate                       : 29.970 fps\nStandard                         : NTSC\nColor space                      : YUV\nChroma subsampling               : 4:2:0\nBit depth                        : 8 bits\nScan type                        : Interlaced\nScan order                       : Top Field First\nCompression mode                 : Lossy\nBits/(Pixel*Frame)               : 0.524\nStream size                      : 160 MiB (76%)\n\nAudio\nID                               : 189 (0xBD)-160 (0xA0)\nFormat                           : PCM\nFormat settings, Endianness      : Big\nFormat settings, Sign            : Signed\nMuxing mode                      : DVD-Video\nDuration                         : 4mn 7s\nBit rate mode                    : Constant\nBit rate                         : 1 536 Kbps\nChannel(s)                       : 2 channels\nChannel positions                : Front: L R\nSampling rate                    : 48.0 KHz\nBit depth                        : 16 bits\nDelay relative to video          : -67ms\nStream size                      : 45.3 MiB (22%)\n\n\nMultimedia Analysis by Mediainfo &lt;a href=&quot; http://mediainfo.sourceforge.net&quot; rel=&quot;nofollow&quot; target=&quot;_NEW&quot;&gt; http://mediainfo.sourceforge.net&lt;/a&gt;\n\n\nVisit &lt;a href=&quot; http://thepiratebay.se/user/dehou/&quot; rel=&quot;nofollow&quot; target=&quot;_NEW&quot;&gt; http://thepiratebay.se/user/dehou/&lt;/a&gt; for more parts and videographys","torrent":{"xt":"urn:btih:260346237b6910ce29867427136a1920c3d7dc32","amp;dn":"Videography+-+U2+-+DVDQ+%5B.vob%5D+-+Part+8","amp;tr":["udp%3A%2F%2Ftracker.openbittorrent.com%3A80","udp%3A%2F%2Fopen.demonii.com%3A1337","udp%3A%2F%2Ftracker.coppersurfer.tk%3A6969","udp%3A%2F%2Fexodus.desync.com%3A6969"],"infoHash":"260346237b6910ce29867427136a1920c3d7dc32","infoHashBuffer":{"type":"Buffer","data":[38,3,70,35,123,105,16,206,41,134,116,39,19,106,25,32,195,215,220,50]},"announce":[],"urlList":[]}}